<svg id="visual" viewBox="0 0 960 540" width="960" height="540" xmlns="http://www.w3.org/2000/svg" xmlns:xlink="http://www.w3.org/1999/xlink" version="1.1"><rect x="0" y="0" width="960" height="540" fill="#ffffff"></rect><path d="M0 285L16 269.8C32 254.7 64 224.3 96 212.8C128 201.3 160 208.7 192 224C224 239.3 256 262.7 288 269.3C320 276 352 266 384 253.5C416 241 448 226 480 222.8C512 219.7 544 228.3 576 237.5C608 246.7 640 256.3 672 264.7C704 273 736 280 768 268.5C800 257 832 227 864 222.2C896 217.3 928 237.7 944 247.8L960 258L960 0L944 0C928 0 896 0 864 0C832 0 800 0 768 0C736 0 704 0 672 0C640 0 608 0 576 0C544 0 512 0 480 0C448 0 416 0 384 0C352 0 320 0 288 0C256 0 224 0 192 0C160 0 128 0 96 0C64 0 32 0 16 0L0 0Z" fill="#0066FF" stroke-linecap="round" stroke-linejoin="miter"></path></svg>