<svg id="visual" viewBox="0 0 960 540" width="960" height="540" xmlns="http://www.w3.org/2000/svg" xmlns:xlink="http://www.w3.org/1999/xlink" version="1.1"><rect x="0" y="0" width="960" height="540" fill="#ffffff"></rect><path d="M0 190L16 179.8C32 169.7 64 149.3 96 141.7C128 134 160 139 192 149.2C224 159.3 256 174.7 288 179C320 183.3 352 176.7 384 168.3C416 160 448 150 480 148C512 146 544 152 576 158.2C608 164.3 640 170.7 672 176.2C704 181.7 736 186.3 768 178.7C800 171 832 151 864 147.8C896 144.7 928 158.3 944 165.2L960 172L960 0L944 0C928 0 896 0 864 0C832 0 800 0 768 0C736 0 704 0 672 0C640 0 608 0 576 0C544 0 512 0 480 0C448 0 416 0 384 0C352 0 320 0 288 0C256 0 224 0 192 0C160 0 128 0 96 0C64 0 32 0 16 0L0 0Z" fill="#0066FF" stroke-linecap="round" stroke-linejoin="miter"></path></svg>